<?xml version="1.0" encoding="UTF-8"?>
<svg width="316px" height="71px" viewBox="0 0 316 71" version="1.1" xmlns="http://www.w3.org/2000/svg" xmlns:xlink="http://www.w3.org/1999/xlink">
    <!-- Generator: Sketch 50.2 (55047) - http://www.bohemiancoding.com/sketch -->
    <title>Group 3</title>
    <desc>Created with Sketch.</desc>
    <defs></defs>
    <g id="Branding" stroke="none" stroke-width="1" fill="none" fill-rule="evenodd">
        <g id="Artboard" transform="translate(-301.000000, -157.000000)" fill="#15161C">
            <g id="Group-2-Copy-7" transform="translate(223.000000, 115.000000)">
                <g id="Group-3" transform="translate(78.000000, 43.000000)">
                    <text id="HISONA-Copy-2" font-family="DINCondensed-Bold, DIN Condensed" font-size="96" font-style="condensed" font-weight="bold">
                        <tspan x="95" y="68">HISONA</tspan>
                    </text>
                    <path d="M53.2391304,26.4634146 L79,26.4634146 C79,50.5080068 61.3152476,70 39.5,70 C17.6847524,70 0,50.5080068 0,26.4634146 L25.7608696,26.4634146 L25.7608696,0 L36.0652174,0 L36.0652174,26.4634146 L42.9347826,26.4634146 L42.9347826,0 L53.2391304,0 L53.2391304,26.4634146 Z M53.2391304,33.2926829 L53.2391304,52.9268293 L42.9347826,52.9268293 L42.9347826,33.2926829 L36.0652174,33.2926829 L36.0652174,52.9268293 L25.7608696,52.9268293 L25.7608696,33.2926829 L9.44565217,33.2926829 C9.44565217,49.2045454 22.901442,62.1036585 39.5,62.1036585 C56.098558,62.1036585 69.5543478,49.2045454 69.5543478,33.2926829 L53.2391304,33.2926829 Z" id="Combined-Shape-Copy-2"></path>
                </g>
            </g>
        </g>
    </g>
</svg>